<svg width="22" height="22" viewBox="0 0 22 22" fill="none" xmlns="http://www.w3.org/2000/svg">
<path fill-rule="evenodd" clip-rule="evenodd" d="M0.403318 0.403318C0.941075 -0.134439 1.81295 -0.134439 2.35071 0.403318L11 9.05261L19.6493 0.403318C20.187 -0.134439 21.0589 -0.134439 21.5967 0.403318C22.1344 0.941075 22.1344 1.81295 21.5967 2.35071L12.9474 11L21.5967 19.6493C22.1344 20.187 22.1344 21.0589 21.5967 21.5967C21.0589 22.1344 20.187 22.1344 19.6493 21.5967L11 12.9474L2.35071 21.5967C1.81295 22.1344 0.941075 22.1344 0.403318 21.5967C-0.134439 21.0589 -0.134439 20.187 0.403318 19.6493L9.05261 11L0.403318 2.35071C-0.134439 1.81295 -0.134439 0.941075 0.403318 0.403318Z" fill="#EE9322"/>
</svg>
