<svg width="27" height="25" viewBox="0 0 27 25" fill="none" xmlns="http://www.w3.org/2000/svg">
<path fill-rule="evenodd" clip-rule="evenodd" d="M0.396001 12.2883C0.924003 11.843 1.78006 11.843 2.30806 12.2883L12.1488 20.5874L12.1488 1.14024C12.1488 0.510505 12.7541 5.12916e-06 13.5008 5.09445e-06C14.2475 5.05974e-06 14.8528 0.510505 14.8528 1.14024L14.8528 20.586L24.6919 12.2883C25.2199 11.843 26.076 11.843 26.604 12.2883C27.132 12.7336 27.132 13.4555 26.604 13.9008L14.456 24.1457C13.928 24.591 13.072 24.591 12.544 24.1457L0.396001 13.9008C-0.132001 13.4555 -0.132001 12.7336 0.396001 12.2883Z" fill="#8E979F"/>
</svg>
