<svg width="30" height="30" viewBox="0 0 30 30" fill="none" xmlns="http://www.w3.org/2000/svg">
<path d="M24.375 27.5C24.8723 27.5 25.3492 27.3025 25.7008 26.9508C26.0525 26.5992 26.25 26.1223 26.25 25.625C26.25 25.1277 26.0525 24.6508 25.7008 24.2992C25.3492 23.9475 24.8723 23.75 24.375 23.75C23.8777 23.75 23.4008 23.9475 23.0492 24.2992C22.6976 24.6508 22.5 25.1277 22.5 25.625C22.5 26.1223 22.6976 26.5992 23.0492 26.9508C23.4008 27.3025 23.8777 27.5 24.375 27.5ZM11.875 27.5C12.3723 27.5 12.8492 27.3025 13.2008 26.9508C13.5525 26.5992 13.75 26.1223 13.75 25.625C13.75 25.1277 13.5525 24.6508 13.2008 24.2992C12.8492 23.9475 12.3723 23.75 11.875 23.75C11.3777 23.75 10.9008 23.9475 10.5492 24.2992C10.1975 24.6508 10 25.1277 10 25.625C10 26.1223 10.1975 26.5992 10.5492 26.9508C10.9008 27.3025 11.3777 27.5 11.875 27.5Z" fill="white" stroke="white" stroke-width="1.5" stroke-linecap="round" stroke-linejoin="round"/>
<path d="M6.25 5H27.5L25 18.75M6.25 5L8.75 18.75H25M6.25 5C6.04125 4.16625 5 2.5 2.5 2.5M25 18.75H6.5375C4.3075 18.75 3.125 19.7263 3.125 21.25C3.125 22.7737 4.3075 23.75 6.5375 23.75H24.375" stroke="white" stroke-width="1.5" stroke-linecap="round" stroke-linejoin="round"/>
</svg>
